<svg width="18" height="18" viewBox="0 0 18 18" fill="none" xmlns="http://www.w3.org/2000/svg">
<path d="M2 0C0.895 0 0 0.895 0 2C0 3.105 0.895 4 2 4C3.105 4 4 3.105 4 2C4 0.895 3.105 0 2 0ZM9 0C7.895 0 7 0.895 7 2C7 3.105 7.895 4 9 4C10.105 4 11 3.105 11 2C11 0.895 10.105 0 9 0ZM16 0C14.895 0 14 0.895 14 2C14 3.105 14.895 4 16 4C17.105 4 18 3.105 18 2C18 0.895 17.105 0 16 0ZM2 7C0.895 7 0 7.895 0 9C0 10.105 0.895 11 2 11C3.105 11 4 10.105 4 9C4 7.895 3.105 7 2 7ZM9 7C7.895 7 7 7.895 7 9C7 10.105 7.895 11 9 11C10.105 11 11 10.105 11 9C11 7.895 10.105 7 9 7ZM16 7C14.895 7 14 7.895 14 9C14 10.105 14.895 11 16 11C17.105 11 18 10.105 18 9C18 7.895 17.105 7 16 7ZM2 14C0.895 14 0 14.895 0 16C0 17.105 0.895 18 2 18C3.105 18 4 17.105 4 16C4 14.895 3.105 14 2 14ZM9 14C7.895 14 7 14.895 7 16C7 17.105 7.895 18 9 18C10.105 18 11 17.105 11 16C11 14.895 10.105 14 9 14ZM16 14C14.895 14 14 14.895 14 16C14 17.105 14.895 18 16 18C17.105 18 18 17.105 18 16C18 14.895 17.105 14 16 14Z" fill="#FDFAF3"/>
</svg>
