<svg width="20" height="20" viewBox="0 0 20 20" fill="none" xmlns="http://www.w3.org/2000/svg">
<path d="M8 0C6.70684 0 5.60486 0.84267 5.1875 2H0V4H5.1875C5.60486 5.15733 6.70684 6 8 6C9.64501 6 11 4.64501 11 3C11 1.35499 9.64501 0 8 0ZM8 2C8.56413 2 9 2.43587 9 3C9 3.56413 8.56413 4 8 4C7.43587 4 7 3.56413 7 3C7 2.43587 7.43587 2 8 2ZM13 2V4H20V2H13ZM13 7C11.7068 7 10.6049 7.84267 10.1875 9H0V11H10.1875C10.6049 12.1573 11.7068 13 13 13C14.645 13 16 11.645 16 10C16 8.35499 14.645 7 13 7ZM13 9C13.5641 9 14 9.43587 14 10C14 10.5641 13.5641 11 13 11C12.4359 11 12 10.5641 12 10C12 9.43587 12.4359 9 13 9ZM18 9V11H20V9H18ZM5 14C3.70684 14 2.60486 14.8427 2.1875 16H0V18H2.1875C2.60486 19.1573 3.70684 20 5 20C6.64501 20 8 18.645 8 17C8 15.355 6.64501 14 5 14ZM5 16C5.56413 16 6 16.4359 6 17C6 17.5641 5.56413 18 5 18C4.43587 18 4 17.5641 4 17C4 16.4359 4.43587 16 5 16ZM10 16V18H20V16H10Z" fill="#655C5B"/>
</svg>
