<svg width="21" height="20" viewBox="0 0 21 20" fill="none" xmlns="http://www.w3.org/2000/svg">
<path d="M10.4285 0C4.91746 0 0.428467 4.489 0.428467 10C0.428467 15.511 4.91746 20 10.4285 20C15.9395 20 20.4285 15.511 20.4285 10C20.4285 4.489 15.9395 0 10.4285 0ZM10.4285 2C14.8586 2 18.4285 5.56988 18.4285 10C18.4285 14.4301 14.8586 18 10.4285 18C5.99834 18 2.42847 14.4301 2.42847 10C2.42847 5.56988 5.99834 2 10.4285 2ZM10.4285 4C8.21847 4 6.42847 5.79 6.42847 8H8.42847C8.42847 6.9 9.32847 6 10.4285 6C11.5285 6 12.4285 6.9 12.4285 8C12.4285 10 9.42847 10.367 9.42847 13H11.4285C11.4285 11.349 14.4285 10.5 14.4285 8C14.4285 5.79 12.6385 4 10.4285 4ZM9.42847 14V16H11.4285V14H9.42847Z" fill="black" fill-opacity="0.2"/>
</svg>
