<svg width="48" height="48" viewBox="0 0 48 48" fill="none" xmlns="http://www.w3.org/2000/svg">
<path d="M25.9135 0.717077L36.4613 8.08396C36.705 8.25409 36.9077 8.5018 37.0489 8.80149C37.19 9.1013 37.2644 9.44226 37.2644 9.78955C37.2644 10.1368 37.19 10.4778 37.0489 10.7776C36.9077 11.0773 36.705 11.325 36.4613 11.4951L25.9136 18.8624C25.2404 19.3325 24.4813 19.5796 23.7091 19.5796C22.9369 19.5796 22.1777 19.3325 21.5046 18.8624L10.9568 11.4951C10.7132 11.325 10.5104 11.0773 10.3693 10.7776C10.2281 10.4778 10.1537 10.1368 10.1537 9.78955C10.1537 9.44226 10.2281 9.1013 10.3693 8.80149C10.5104 8.5018 10.7132 8.25409 10.9568 8.08396L21.5046 0.717077C22.1777 0.246908 22.9369 5.72205e-06 23.7091 5.72205e-06C24.4813 5.72205e-06 25.2404 0.246908 25.9135 0.717077Z" fill="#2196F3"/>
<path opacity="0.7" d="M25.8565 7.63293L40.9625 18.1835C41.2061 18.3536 41.4089 18.6013 41.5501 18.901C41.6912 19.2008 41.7656 19.5418 41.7656 19.8891C41.7656 20.2364 41.6912 20.5774 41.5501 20.8771C41.4089 21.1769 41.2061 21.4245 40.9625 21.5948L25.8565 32.1452C25.1834 32.6152 24.4242 32.8622 23.6521 32.8622C22.8799 32.8622 22.1208 32.6152 21.4477 32.1452L6.34163 21.5948C6.09803 21.4245 5.89523 21.1769 5.75409 20.8771C5.61295 20.5774 5.53856 20.2364 5.53856 19.8891C5.53856 19.5418 5.61295 19.2008 5.75409 18.901C5.89523 18.6013 6.09803 18.3536 6.34163 18.1835L21.4477 7.63293C22.1208 7.16287 22.8799 6.91598 23.6521 6.91598C24.4242 6.91598 25.1834 7.16287 25.8565 7.63293Z" fill="#2196F3"/>
<path opacity="0.4" d="M26.2009 14.5478L47.1982 29.2133C47.4415 29.3832 47.6439 29.6304 47.7848 29.9297C47.9257 30.2289 48 30.5695 48 30.9162C48 31.2629 47.9257 31.6033 47.7848 31.9026C47.6439 32.2018 47.4415 32.4491 47.1982 32.619L26.2008 47.2841C25.5288 47.7535 24.7709 48 24 48C23.2291 48 22.4712 47.7535 21.7992 47.2841L0.801765 32.619C0.558563 32.4491 0.356094 32.2018 0.215187 31.9026C0.0742798 31.6033 3.8147e-06 31.2629 3.8147e-06 30.9162C3.8147e-06 30.5695 0.0742798 30.2289 0.215187 29.9297C0.356094 29.6304 0.558563 29.3832 0.801765 29.2133L21.7992 14.5478C22.4712 14.0785 23.2291 13.8319 24 13.8319C24.7709 13.8319 25.5288 14.0785 26.2009 14.5478Z" fill="#2196F3"/>
</svg>
