<svg width="20" height="18" viewBox="0 0 20 18" fill="none" xmlns="http://www.w3.org/2000/svg">
<path d="M19.043 12.457L17.629 11.043L15.129 13.715L13.983 12.569L16.044 10.508L14.63 9.094L12.569 11.155L9.20999 7.796L9.51499 7.159C10.426 5.25 10.035 2.964 8.54299 1.472C6.59099 -0.479998 3.41899 -0.479999 1.46999 1.47C-0.47901 3.419 -0.47901 6.592 1.46999 8.541C2.96199 10.033 5.24799 10.424 7.15699 9.513L7.79399 9.208L16.543 17.957L17.957 16.543L16.543 15.129L19.043 12.457ZM7.12699 7.127C5.95699 8.297 4.05399 8.297 2.88399 7.127C1.71399 5.957 1.71399 4.054 2.88399 2.884C4.05399 1.714 5.95699 1.714 7.12699 2.884C8.29599 4.054 8.29599 5.957 7.12699 7.127Z" fill="#655C5B"/>
</svg>
