<svg width="18" height="18" viewBox="0 0 18 18" fill="none" xmlns="http://www.w3.org/2000/svg">
<path d="M2 0C0.897 0 0 0.897 0 2V16C0 17.103 0.897 18 2 18H16C17.103 18 18 17.103 18 16V2C18 0.897 17.103 0 16 0H2ZM2 2H16L16.002 16H2V2ZM11.5664 4.11328C10.1944 4.11328 9.08008 5.22861 9.08008 6.59961C9.08008 6.85661 9.16602 7.02822 9.16602 7.19922C7.10902 7.11422 5.30937 6.08591 4.10938 4.62891C3.85238 4.97191 3.76562 5.39913 3.76562 5.82812C3.76562 6.68512 4.19486 7.37266 4.88086 7.97266C4.45286 7.88666 4.10862 7.79991 3.76562 7.62891C3.76562 8.82891 4.62233 9.7723 5.73633 10.0293C5.47933 10.1153 5.30778 10.1152 5.05078 10.1152C4.96478 10.1152 4.79209 10.0293 4.62109 10.0293C4.96409 10.9723 5.82155 11.7422 6.93555 11.7422C6.07855 12.3422 4.96361 12.7715 3.84961 12.7715H3.25C4.364 13.4565 5.65049 13.8867 7.02148 13.8867C11.5645 13.8867 14.0508 10.1144 14.0508 6.85742V6.51367C14.4798 6.17067 14.907 5.74256 15.252 5.22656C14.738 5.48456 14.3089 5.57025 13.7949 5.65625C14.3089 5.31425 14.7372 4.88516 14.9082 4.28516C14.4792 4.54216 13.9652 4.79877 13.3652 4.88477C12.9362 4.37077 12.2524 4.11328 11.5664 4.11328Z" fill="black"/>
</svg>
