<svg width="21" height="21" viewBox="0 0 21 21" fill="none" xmlns="http://www.w3.org/2000/svg">
<path d="M16 0V3H13V5H16V8H18V5H21V3H18V0H16ZM2.75 3C2.271 3 1.85953 3.33955 1.76953 3.81055L0.0195312 12.8105C0.00653125 12.8725 0 12.936 0 13V19C0 20.103 0.897 21 2 21H16C17.103 21 18 20.103 18 19V13C18 12.936 17.9935 12.8725 17.9805 12.8105L17.4355 10H15.3984L15.9805 13H12C11.8143 13 11.6322 13.0517 11.4742 13.1493C11.3162 13.2469 11.1885 13.3866 11.1055 13.5527L10.3828 15H7.61719L6.89453 13.5527C6.81145 13.3866 6.68377 13.2469 6.52577 13.1493C6.36778 13.0517 6.18572 13 6 13H2.01953L3.57422 5H11V3H2.75ZM2 15H5.38281L6.10547 16.4473C6.18855 16.6134 6.31623 16.7531 6.47423 16.8507C6.63222 16.9483 6.81428 17 7 17H11C11.1857 17 11.3678 16.9483 11.5258 16.8507C11.6838 16.7531 11.8115 16.6134 11.8945 16.4473L12.6172 15H16V19H2V15Z" fill="#12B37E"/>
</svg>
